<svg width="168" height="28" viewBox="0 0 168 28" fill="none" xmlns="http://www.w3.org/2000/svg">
<g clip-path="url(#clip0_1804_1738)">
<path d="M8.08407 14L0 28.0007H16.1681L8.08407 14Z" fill="#00823D"/>
<path d="M0 0H16.1681L24.2522 13.9993L0 0Z" fill="#38D430"/>
<path d="M0 0L24.2522 13.9993L16.1681 28L0 0Z" fill="#00AE42"/>
<path d="M74.7904 16.9688H71.5542V23.0999H86.4296V20.4231H74.7904V16.9688Z" fill="#002F87"/>
<path d="M103.175 4.89844V11.4331H101.558V4.89844H98.4315L98.4372 15.9726C97.3406 16.7092 94.4812 17.4471 92.5506 17.584V8.15379H96.8353V5.4798H89.2932V20.7773C93.4665 20.67 96.7845 19.5878 98.4372 18.8371L98.4315 23.0562H101.558V14.4472H103.175V23.1013H106.324V4.89844H103.175Z" fill="#002F87"/>
<path d="M79.7625 11.7455C79.7625 10.745 79.4308 9.87577 78.8748 9.18011H80.6841V11.8541H82.9098V12.9858H80.6841V15.7515H82.9098V18.0346H86.1233V4.8975H82.9098V9.15613H80.718V6.50471H76.46L75.4876 4.16797H72.0567L73.0714 6.50471H68.8092V9.18153H70.706C70.15 9.87719 69.8141 10.7464 69.8141 11.7469C69.8141 14.4448 71.9353 16.1776 74.7777 16.1776C77.6201 16.1776 79.7625 14.4448 79.7625 11.7469V11.7455ZM72.8456 11.6015C72.8456 10.3457 73.715 9.45104 74.8426 9.45104C76.0281 9.45104 76.8397 10.3457 76.8397 11.6015C76.8397 12.8574 76.0295 13.7294 74.8426 13.7294C73.6557 13.7294 72.8456 12.8136 72.8456 11.6015Z" fill="#002F87"/>
<path d="M74.7904 16.9688H71.5542V23.0999H86.4296V20.4231H74.7904V16.9688Z" fill="#002F87"/>
<path d="M103.175 4.89844V11.4331H101.558V4.89844H98.4315L98.4372 15.9726C97.3406 16.7092 94.4812 17.4471 92.5506 17.584V8.15379H96.8353V5.4798H89.2932V20.7773C93.4665 20.67 96.7845 19.5878 98.4372 18.8371L98.4315 23.0562H101.558V14.4472H103.175V23.1013H106.324V4.89844H103.175Z" fill="#002F87"/>
<path d="M79.7625 11.7455C79.7625 10.745 79.4308 9.87577 78.8748 9.18011H80.6841V11.8541H82.9098V12.9858H80.6841V15.7515H82.9098V18.0346H86.1233V4.8975H82.9098V9.15613H80.718V6.50471H76.46L75.4876 4.16797H72.0567L73.0714 6.50471H68.8092V9.18153H70.706C70.15 9.87719 69.8141 10.7464 69.8141 11.7469C69.8141 14.4448 71.9353 16.1776 74.7777 16.1776C77.6201 16.1776 79.7625 14.4448 79.7625 11.7469V11.7455ZM72.8456 11.6015C72.8456 10.3457 73.715 9.45104 74.8426 9.45104C76.0281 9.45104 76.8397 10.3457 76.8397 11.6015C76.8397 12.8574 76.0295 13.7294 74.8426 13.7294C73.6557 13.7294 72.8456 12.8136 72.8456 11.6015Z" fill="#002F87"/>
<path d="M56.7847 4.89844H50.2784V23.0985H56.7847C62.756 23.0985 65.8298 19.98 65.8298 13.8545C65.8298 7.72906 62.7546 4.89985 56.7847 4.89985V4.89844ZM56.6732 20.0012H54.3558V7.99434H56.6732C60.2156 7.99434 61.864 9.95433 61.864 13.8531C61.864 17.7519 60.2156 20.0012 56.6732 20.0012Z" fill="#002F87"/>
<path d="M42.7716 4.89844L42.7702 15.2247L40.8861 11.9595H35.3297V4.89844H31.2961V23.0985H35.3297V15.4801H42.7716V23.0985H46.8264V4.89844H42.7716Z" fill="#002F87"/>
<path d="M56.7847 4.89844H50.2784V23.0985H56.7847C62.756 23.0985 65.8298 19.98 65.8298 13.8545C65.8298 7.72906 62.7546 4.89985 56.7847 4.89985V4.89844ZM56.6732 20.0012H54.3558V7.99434H56.6732C60.2156 7.99434 61.864 9.95433 61.864 13.8531C61.864 17.7519 60.2156 20.0012 56.6732 20.0012Z" fill="#002F87"/>
<path d="M42.7716 4.89844L42.7702 15.2247L40.8861 11.9595H35.3297V4.89844H31.2961V23.0985H35.3297V15.4801H42.7716V23.0985H46.8264V4.89844H42.7716Z" fill="#002F87"/>
<path d="M109.152 14.9517H117.014V15.6827C114.255 16.1286 112.515 17.7358 112.515 19.8637C112.515 22.4502 114.943 24.1971 118.618 24.1971C122.315 24.1971 124.743 22.4502 124.743 19.8637C124.743 17.7386 123.008 16.1342 120.244 15.6841V14.9517H128.083V12.3906H109.152V14.9517ZM121.313 19.8637C121.313 21.0278 120.266 21.8434 118.618 21.8434C116.992 21.8434 115.945 21.0278 115.945 19.8637C115.945 18.6981 116.992 17.8839 118.618 17.8839C120.266 17.8839 121.313 18.6996 121.313 19.8637Z" fill="#002F87"/>
<path d="M110.177 9.4013L111.001 11.9624C114.075 11.8058 117.132 10.9902 118.64 9.31945C120.132 10.7221 123.162 11.8058 126.235 11.9624L127.059 9.4013C124.839 9.29405 121.929 8.73668 120.826 7.44978H126.569V4.88867H110.711V7.44978H116.45C115.336 8.73809 112.398 9.29405 110.177 9.4013Z" fill="#002F87"/>
<path d="M147.567 4.92773H132.488V7.51142H144.247C144.247 8.77292 144.043 10.716 143.471 11.8985H140.722V9.2033H137.493V11.8985H130.566V14.4596H149.498V11.8985H146.602C147.448 10.0951 147.611 7.11067 147.565 4.92773H147.567Z" fill="#002F87"/>
<path d="M140.022 15.3105C136.413 15.3105 133.986 17.1139 133.986 19.6313C133.986 22.1486 136.413 23.9957 140.022 23.9957C143.631 23.9957 146.079 22.1472 146.079 19.6313C146.079 17.1153 143.652 15.3105 140.022 15.3105ZM140.022 21.635C138.441 21.635 137.394 20.7883 137.394 19.6313C137.394 18.4742 138.441 17.6487 140.022 17.6487C141.603 17.6487 142.672 18.4953 142.672 19.6313C142.672 20.7672 141.625 21.635 140.022 21.635Z" fill="#002F87"/>
<path d="M164.857 4.87862V8.18478H161.83C161.257 6.1373 159.357 4.75586 156.731 4.75586C153.566 4.75586 151.492 6.75959 151.492 9.52107C151.492 12.2825 153.588 14.3089 156.731 14.3089C159.305 14.3089 161.204 12.9627 161.807 10.9463H164.857V14.1522H168V4.87862H164.857ZM156.731 11.8141C155.356 11.8141 154.482 10.8559 154.482 9.52107C154.482 8.27367 155.356 7.24923 156.731 7.24923C158.105 7.24923 159.023 8.22852 159.023 9.52107C159.023 10.8136 158.128 11.8141 156.731 11.8141Z" fill="#002F87"/>
<path d="M164.857 16.7535H157.058V15.2422H153.915V23.1259H168V15.2422H164.857V16.7535ZM164.857 20.5775H157.058V19.2708H164.857V20.5775Z" fill="#002F87"/>
</g>
<defs>
<clipPath id="clip0_1804_1738">
<rect width="168" height="28" fill="white"/>
</clipPath>
</defs>
</svg>
